<?xml version="1.0" standalone="no"?>
<!DOCTYPE svg PUBLIC "-//W3C//DTD SVG 20010904//EN"
 "http://www.w3.org/TR/2001/REC-SVG-20010904/DTD/svg10.dtd">
<svg version="1.0" xmlns="http://www.w3.org/2000/svg"
 width="250px" height="80px" viewBox="0 0 1000 300"
 preserveAspectRatio="xMidYMid meet">

<g transform="translate(0.000000,600.000000) scale(0.100000,-0.100000)"
fill="#040921d4" >
<path d="M4380 5740 c-292 -23 -638 -94 -940 -192 -203 -65 -353 -130 -642
-274 -150 -75 -313 -154 -363 -176 -341 -149 -761 -282 -1093 -348 -57 -11
-105 -20 -108 -20 -2 0 -4 -7 -4 -15 0 -18 47 -19 205 -5 472 44 988 207 1602
506 218 107 300 141 464 194 219 72 431 117 739 157 171 22 778 25 965 5 540
-59 883 -127 1348 -269 9 -3 17 0 17 7 0 13 -176 99 -325 158 -310 123 -690
219 -1035 262 -110 14 -694 21 -830 10z"/>
<path d="M5395 4999 c-541 -16 -1209 -80 -1512 -145 -27 -5 -31 -34 -5 -34 10
0 112 9 227 19 1010 94 2049 78 2978 -45 106 -14 223 -30 262 -35 83 -11 450
-74 550 -94 527 -108 852 -192 1215 -313 91 -30 206 -71 255 -90 110 -42 149
-50 143 -31 -10 32 -468 225 -774 328 -659 219 -1398 361 -2174 416 -200 14
-784 36 -875 33 -22 -1 -152 -5 -290 -9z"/>
<path d="M1515 4231 c-39 -16 -57 -48 -65 -118 -6 -49 -25 -104 -63 -189 -82
-182 -87 -190 -121 -209 -49 -29 -56 -44 -30 -69 12 -12 37 -16 105 -16 50 0
99 5 110 10 18 10 28 60 11 60 -5 0 -16 6 -26 13 -15 11 -17 17 -7 35 11 20
20 22 104 22 92 0 117 -8 117 -37 0 -7 -11 -19 -25 -25 -31 -14 -34 -53 -4
-68 13 -7 71 -10 161 -8 125 3 141 5 154 22 21 30 17 46 -15 57 -23 8 -36 26
-62 82 -86 185 -171 345 -200 381 -31 36 -82 67 -111 65 -7 0 -22 -4 -33 -8z
m37 -248 c19 -22 48 -78 48 -93 0 -6 -25 -10 -60 -10 -69 0 -72 7 -40 78 21
46 29 50 52 25z"/>
<path d="M4685 4231 c-37 -16 -53 -46 -63 -117 -7 -53 -27 -108 -77 -217 -65
-141 -86 -172 -132 -196 -27 -14 -29 -33 -7 -55 12 -12 37 -16 110 -16 81 0
97 3 114 20 27 27 25 37 -10 55 -16 9 -30 21 -30 28 0 29 25 37 115 37 90 0
115 -8 115 -37 0 -7 -11 -19 -25 -25 -28 -13 -32 -39 -9 -62 23 -23 279 -23
312 0 30 21 28 50 -5 66 -22 10 -49 54 -128 214 -101 202 -137 262 -179 289
-29 19 -76 27 -101 16z m37 -248 c19 -22 48 -78 48 -93 0 -6 -25 -10 -60 -10
-69 0 -72 7 -40 78 21 46 29 50 52 25z"/>
<path d="M2029 4223 c-15 -2 -37 -15 -49 -28 -26 -28 -19 -45 29 -68 l26 -12
3 -190 3 -190 -36 -30 c-36 -31 -40 -57 -10 -69 11 -4 389 -9 452 -7 18 1 63
101 63 141 0 69 -60 95 -80 35 -17 -50 -53 -75 -110 -75 -71 0 -74 8 -78 182
-5 185 -1 208 38 231 35 21 38 37 9 63 -17 16 -38 19 -127 20 -59 1 -119 0
-133 -3z"/>
<path d="M2795 4212 c-63 -21 -69 -44 -23 -82 l33 -28 0 -181 0 -181 -27 -25
c-62 -57 -22 -85 120 -85 161 0 219 35 151 92 l-34 29 0 180 0 180 34 28 c41
34 37 55 -14 76 -47 20 -177 19 -240 -3z"/>
<path d="M3778 4223 c-27 -7 -35 -53 -12 -69 48 -33 47 -27 42 -218 -3 -100
-9 -188 -12 -197 -4 -9 -18 -21 -32 -27 -27 -13 -33 -52 -10 -71 11 -9 74 -12
233 -9 l218 3 54 30 c97 54 145 141 146 265 0 100 -21 156 -79 216 -73 75
-112 84 -345 83 -102 -1 -194 -3 -203 -6z m359 -127 c32 -34 47 -93 47 -186 0
-122 -33 -179 -108 -187 -35 -4 -50 -2 -57 8 -14 23 -11 383 4 398 20 21 78 4
114 -33z"/>
<path d="M5194 4220 c-17 -5 -39 -19 -49 -30 -21 -23 -11 -41 34 -63 26 -12
26 -13 34 -174 9 -185 2 -233 -38 -251 -29 -14 -33 -47 -7 -61 23 -12 450 -17
462 -5 23 25 50 93 50 127 0 51 -15 77 -45 77 -18 0 -26 -8 -35 -35 -17 -50
-53 -75 -110 -75 -70 0 -74 9 -78 173 -5 184 0 217 38 239 35 20 38 38 9 64
-17 16 -39 19 -127 21 -59 1 -121 -2 -138 -7z"/>
<path d="M3122 4208 c-20 -20 -14 -43 18 -66 l30 -23 0 -132 c0 -180 -12 -252
-44 -282 -29 -27 -31 -33 -12 -57 12 -16 35 -18 217 -18 112 0 221 5 242 11
98 27 165 146 126 222 -17 33 -51 68 -76 78 -27 10 -30 31 -7 50 45 37 56 113
25 165 -35 57 -65 64 -298 64 -149 0 -212 -3 -221 -12z m304 -76 c18 -12 34
-49 34 -79 0 -42 -26 -73 -61 -73 l-29 0 0 73 c0 41 3 77 7 80 8 9 35 9 49 -1z
m29 -262 c27 -30 27 -116 1 -136 -28 -20 -63 -17 -76 5 -11 22 -14 134 -3 144
14 14 61 6 78 -13z"/>
<path d="M6482 3993 c-134 -4 -152 -13 -112 -53 20 -20 22 -30 18 -125 -3 -90
-6 -106 -23 -119 -36 -26 -5 -34 139 -37 l140 -3 18 29 c40 66 9 109 -39 55
-28 -31 -86 -49 -109 -33 -11 8 -17 38 -15 76 1 24 38 22 46 -4 4 -12 14 -19
23 -17 25 5 25 131 1 136 -11 2 -19 -6 -23 -23 -5 -20 -12 -26 -29 -23 -18 3
-22 9 -22 43 l0 40 45 3 c35 2 52 -2 70 -18 13 -11 28 -19 34 -17 31 10 8 99
-23 95 -9 -1 -71 -4 -139 -5z"/>
<path d="M7260 3990 l-125 -5 -20 -37 c-15 -29 -17 -42 -9 -55 17 -27 32 -26
57 1 41 44 47 35 47 -69 0 -83 -3 -97 -20 -112 -11 -10 -20 -23 -20 -30 0 -25
110 -41 170 -24 32 9 37 36 11 51 -19 10 -21 20 -21 110 0 109 8 121 48 75 12
-14 28 -25 37 -25 20 0 37 36 29 63 -7 24 -44 68 -53 65 -3 -1 -62 -5 -131 -8z"/>
<path d="M7728 3989 c-10 -5 -20 -26 -23 -47 -12 -71 -68 -196 -102 -229 -30
-29 -32 -33 -17 -47 18 -18 76 -21 105 -6 20 11 27 40 9 40 -21 0 -9 30 15 36
36 9 95 -4 95 -21 0 -8 -4 -15 -10 -15 -5 0 -10 -9 -10 -19 0 -16 9 -21 45
-27 90 -13 182 20 132 48 -9 5 -43 64 -76 132 -73 150 -110 186 -163 155z m47
-159 c15 -29 15 -30 -11 -36 -35 -9 -51 8 -36 41 15 33 28 32 47 -5z"/>
<path d="M8245 3985 c-53 -19 -112 -82 -121 -130 -15 -82 43 -170 129 -195 75
-20 173 11 191 63 14 39 -2 52 -40 32 -67 -34 -135 -6 -154 65 -14 50 -4 89
26 102 32 15 81 -7 100 -43 29 -57 97 -21 80 43 -11 41 -22 49 -92 64 -81 17
-69 17 -119 -1z"/>
<path d="M8616 3987 c-11 -8 -22 -34 -26 -63 -11 -66 -74 -198 -107 -222 -30
-22 -25 -38 17 -47 59 -13 128 22 90 45 -7 4 -10 15 -7 24 11 27 117 18 117
-10 0 -8 -4 -14 -10 -14 -5 0 -10 -9 -10 -19 0 -16 9 -21 45 -27 91 -13 182
20 132 48 -10 5 -44 65 -77 133 -74 151 -114 188 -164 152z m44 -146 c18 -35
12 -51 -20 -51 -21 0 -30 5 -30 16 0 21 18 54 30 54 5 0 14 -9 20 -19z"/>
<path d="M5971 3977 c-8 -11 -6 -18 9 -32 17 -16 20 -31 20 -115 0 -82 -3
-101 -20 -123 -18 -23 -18 -26 -3 -38 20 -18 138 -18 154 -2 10 10 9 17 -4 31
-19 21 -23 87 -5 98 14 9 36 -20 49 -69 15 -56 41 -77 93 -77 55 0 89 26 62
46 -10 7 -22 29 -27 49 -6 21 -22 48 -36 61 l-26 24 21 23 c37 39 28 98 -19
122 -38 20 -251 21 -268 2z m187 -60 c7 -34 -7 -67 -28 -67 -17 0 -20 7 -20
46 0 41 2 45 22 42 13 -2 24 -11 26 -21z"/>
<path d="M6701 3976 c-10 -11 -7 -19 11 -36 20 -18 23 -33 27 -112 3 -79 0
-94 -18 -118 -16 -23 -18 -30 -7 -39 21 -17 69 -23 99 -12 30 12 35 32 12 51
-17 14 -21 85 -5 95 12 7 34 -9 134 -99 89 -79 93 -74 98 94 3 113 5 131 22
143 12 9 17 20 13 31 -5 12 -20 16 -66 16 -67 0 -78 -11 -49 -51 20 -27 21
-70 2 -76 -5 -2 -44 26 -85 62 -70 61 -77 65 -125 65 -33 0 -56 -5 -63 -14z"/>
<path d="M8893 3983 c-18 -7 -16 -20 8 -44 19 -19 20 -30 17 -121 -2 -81 -6
-102 -20 -112 -28 -20 -21 -34 20 -45 52 -15 95 -14 118 3 15 12 17 17 7 27
-15 15 -18 109 -4 109 15 0 41 -42 41 -66 0 -13 12 -36 26 -53 21 -25 33 -31
66 -31 69 0 100 31 58 58 -12 7 -20 23 -20 38 0 16 -12 37 -31 54 l-30 29 20
20 c21 21 27 64 15 96 -13 33 -59 45 -171 44 -59 0 -114 -3 -120 -6z m172 -88
c0 -30 -4 -41 -17 -43 -15 -3 -18 4 -18 43 0 39 3 46 18 43 13 -2 17 -13 17
-43z"/>
</g>
</svg>
